<svg width="328" height="170" viewBox="0 0 328 170" fill="none" xmlns="http://www.w3.org/2000/svg">
<path fill-rule="evenodd" clip-rule="evenodd" d="M86.1322 -27.9582H86.1367L86.1344 -27.9559L86.1367 -27.9537L87.1799 -26.9156L96.7538 -17.3883V10.0944L124.192 10.0944L133.758 19.7067L134.79 20.7438L134.798 20.7522L134.806 20.7438V20.7606V22.8246L134.806 67.3207V68.7956H133.331L96.7538 68.7956L96.7538 105.373V106.848H95.2789L50.7827 106.848H48.7188H48.702L48.7104 106.84L48.702 106.831L47.6649 105.799L38.0526 96.2339L38.0526 68.7956H10.5698L0.00444733 58.1785L0.00223462 58.1763L0 58.1785L1.95304e-10 58.174L9.09485e-08 56.0978L2.10182e-06 11.5693L2.10182e-06 10.0944H1.47491L38.0526 10.0944L38.0526 -26.4833V-27.9582H39.5275L84.0552 -27.9582H86.1322ZM38.0526 11.5693L1.47491 11.5693L1.47491 57.5652L11.1829 67.3207H38.0526L38.0526 11.5693ZM39.5275 67.3207L39.5275 11.5693L95.2789 11.5693L95.2789 67.3207L39.5275 67.3207ZM39.5275 68.7956L39.5275 95.6208L49.3276 105.373L95.2789 105.373L95.2789 68.7956L39.5275 68.7956ZM96.7538 67.3207L133.331 67.3207L133.331 21.3694L123.579 11.5693L96.7538 11.5693L96.7538 67.3207ZM95.2789 10.0944L39.5275 10.0944L39.5275 -26.4833L85.5234 -26.4833L95.2789 -16.7753V10.0944ZM38.0526 106.848V106.806L38.0949 106.848H38.0526ZM134.806 10.0944H134.764L134.806 10.1367V10.0944Z" fill="#F76619" fill-opacity="0.07"/>
<path fill-rule="evenodd" clip-rule="evenodd" d="M186.593 34.7225H186.598L186.595 34.7247L186.598 34.7269L187.641 35.7651L197.215 45.2923V72.775H224.653L234.219 82.3874L235.251 83.4245L235.259 83.4328L235.267 83.4245V83.4413V85.5052V130.001V131.476H233.792H197.215V168.054V169.529H195.74H151.244H149.18H149.163L149.171 169.52L149.163 169.512L148.126 168.48L138.513 158.915V131.476H111.031L100.465 120.859L100.463 120.857L100.461 120.859L100.461 120.855L100.461 118.778L100.461 74.2499V72.775H101.936H138.513V36.1974V34.7225H139.988H184.516H186.593ZM138.513 74.2499H101.936L101.936 120.246L111.644 130.001H138.513V74.2499ZM139.988 130.001V74.2499L195.74 74.2499V130.001L139.988 130.001ZM139.988 131.476V158.301L149.789 168.054H195.74V131.476H139.988ZM197.215 130.001H233.792V84.0501L224.04 74.2499H197.215V130.001ZM195.74 72.775L139.988 72.775V36.1974H185.984L195.74 45.9054V72.775ZM138.513 169.529V169.487L138.556 169.529H138.513ZM235.267 72.775H235.225L235.267 72.8174V72.775Z" fill="#F76619" fill-opacity="0.07"/>
<path fill-rule="evenodd" clip-rule="evenodd" d="M279.326 -52H279.33L279.328 -51.9978L279.33 -51.9955L280.373 -50.9574L289.947 -41.4301V-13.9474H317.386L326.951 -4.3351L327.983 -3.29798L327.992 -3.28963L328 -3.29798V-3.2812V-1.21725V43.2789V44.7538H326.525H289.947V81.3314V82.8063H288.472H243.976H241.912H241.896L241.904 82.798L241.896 82.7897L240.858 81.7576L231.246 72.1921V44.7538H203.763L193.198 34.1367L193.196 34.1345L193.194 34.1367L193.194 34.1322L193.194 32.056L193.194 -12.4725V-13.9475H194.669H231.246V-50.5251V-52H232.721H277.249H279.326ZM231.246 -12.4725H194.669L194.669 33.5234L204.376 43.2789H231.246V-12.4725ZM232.721 43.2789V-12.4725L288.472 -12.4725V43.2789L232.721 43.2789ZM232.721 44.7538V71.579L242.521 81.3314H288.472V44.7538H232.721ZM289.947 43.2789H326.525V-2.67237L316.773 -12.4725H289.947V43.2789ZM288.472 -13.9474L232.721 -13.9475V-50.5251H278.717L288.472 -40.8171V-13.9474ZM231.246 82.8063V82.7642L231.288 82.8063H231.246ZM328 -13.9474H327.958L328 -13.9051V-13.9474Z" fill="#F76619" fill-opacity="0.07"/>
<path fill-rule="evenodd" clip-rule="evenodd" d="M187.197 34.7225H187.201L187.199 34.7247L187.201 34.7269L188.245 35.7651L197.818 45.2923V72.775H225.257L234.822 82.3874L235.854 83.4245L235.863 83.4328L235.871 83.4245V83.4413V85.5052V130.001V131.476H234.396H197.818V168.054V169.529H196.344H151.847H149.783H149.767L149.775 169.52L149.767 169.512L148.73 168.48L139.117 158.915V131.476H111.635L101.069 120.859L101.067 120.857L101.065 120.859L101.065 120.855L101.065 118.778L101.065 74.2499V72.775H102.54H139.117V36.1974V34.7225H140.592H185.12H187.197ZM139.117 74.2499H102.54L102.54 120.246L112.248 130.001H139.117V74.2499ZM140.592 130.001V74.2499L196.344 74.2499V130.001L140.592 130.001ZM140.592 131.476V158.301L150.392 168.054H196.344V131.476H140.592ZM197.818 130.001H234.396V84.0501L224.644 74.2499H197.818V130.001ZM196.344 72.775L140.592 72.775V36.1974H186.588L196.344 45.9054V72.775ZM139.117 169.529V169.487L139.16 169.529H139.117ZM235.871 72.775H235.829L235.871 72.8174V72.775Z" fill="#F76619"/>
<path d="M119.351 74.2713H224.531V129.98H119.351V74.2713Z" fill="black"/>
<path d="M196.322 49.5355L196.322 154.716L140.613 154.716L140.613 49.5355L196.322 49.5355Z" fill="black"/>
<path d="M143.448 38.975H186.541V158.472H143.448V38.975Z" fill="#F76619"/>
<path d="M224.743 77.1774L224.743 120.27L105.246 120.27L105.246 77.1774L224.743 77.1774Z" fill="#F76619"/>
<path d="M143.699 116.372H108.436V105.787H129.585V102.244H108.436V81.0753H143.699V91.6597H122.55V95.2028H143.699V116.372Z" fill="black"/>
<path d="M147.292 116.372V81.0753H182.556V105.787H161.407V116.372H147.292ZM161.407 91.6597V95.2028H168.441V91.6597H161.407Z" fill="black"/>
<path d="M207.298 81.0753H221.412V116.327L186.149 116.372V105.787H207.298V102.199H186.149V81.0753H200.263V91.6149H207.298V81.0753Z" fill="black"/>
<path d="M168.441 120.908H182.556V156.159L147.292 156.204V145.62H168.441V142.032H147.292V120.908H161.407V131.447H168.441V120.908Z" fill="black"/>
<path d="M182.556 76.3975H147.292V65.8131H168.441V62.27H147.292V41.1012H182.556V51.6856H161.407V55.2287H182.556V76.3975Z" fill="black"/>
</svg>
